<mxfile host="app.diagrams.net" modified="2023-08-29T13:30:52.210Z" agent="Mozilla/5.0 (X11; Linux x86_64) AppleWebKit/537.36 (KHTML, like Gecko) Chrome/115.0.0.0 Safari/537.36" etag="VWKNysVuqg07RFMXW9HA" version="21.6.9" type="github">
  <diagram name="第 1 页" id="0c6lW5mvZJDokKavEyJv">
    <mxGraphModel dx="1687" dy="939" grid="1" gridSize="10" guides="1" tooltips="1" connect="1" arrows="1" fold="1" page="1" pageScale="1" pageWidth="827" pageHeight="1169" math="0" shadow="0">
      <root>
        <mxCell id="0" />
        <mxCell id="1" parent="0" />
        <mxCell id="Dg9hZTQ3nmTfVF4-bL2T-1" value="" style="rounded=1;whiteSpace=wrap;html=1;strokeWidth=2;fillWeight=4;hachureGap=8;hachureAngle=45;sketch=1;strokeColor=#23445d;fillColor=#D4E1F5;shadow=1;glass=0;" vertex="1" parent="1">
          <mxGeometry x="510" y="670" width="217" height="90" as="geometry" />
        </mxCell>
        <mxCell id="Dg9hZTQ3nmTfVF4-bL2T-2" value="Methods for Q1" style="text;strokeColor=none;fillColor=none;html=1;fontSize=24;fontStyle=1;verticalAlign=middle;align=center;fontColor=#4D4D4D;" vertex="1" parent="1">
          <mxGeometry x="568.5" y="695" width="100" height="40" as="geometry" />
        </mxCell>
        <mxCell id="Dg9hZTQ3nmTfVF4-bL2T-3" value="" style="rounded=1;whiteSpace=wrap;html=1;strokeWidth=2;fillWeight=4;hachureGap=8;hachureAngle=45;sketch=1;fillColor=#b1ddf0;strokeColor=#10739e;shadow=1;" vertex="1" parent="1">
          <mxGeometry x="620" y="100" width="310" height="410" as="geometry" />
        </mxCell>
        <mxCell id="Dg9hZTQ3nmTfVF4-bL2T-4" value="Methods for Q2" style="text;strokeColor=none;fillColor=none;html=1;fontSize=24;fontStyle=1;verticalAlign=middle;align=center;fontColor=#3333FF;" vertex="1" parent="1">
          <mxGeometry x="708.5" y="265" width="100" height="40" as="geometry" />
        </mxCell>
        <mxCell id="Dg9hZTQ3nmTfVF4-bL2T-5" value="" style="ellipse;whiteSpace=wrap;html=1;strokeWidth=2;fillWeight=2;hachureGap=8;fillColor=#fad7ac;fillStyle=dots;sketch=1;strokeColor=#b46504;shadow=0;" vertex="1" parent="1">
          <mxGeometry x="1060" y="85" width="441" height="420" as="geometry" />
        </mxCell>
        <mxCell id="Dg9hZTQ3nmTfVF4-bL2T-6" value="&lt;div&gt;Features and &lt;br&gt;&lt;/div&gt;&lt;div&gt;properties &lt;/div&gt;" style="text;strokeColor=none;fillColor=none;html=1;fontSize=24;fontStyle=1;verticalAlign=middle;align=center;fontColor=#994C00;" vertex="1" parent="1">
          <mxGeometry x="1174" y="160" width="100" height="40" as="geometry" />
        </mxCell>
        <mxCell id="Dg9hZTQ3nmTfVF4-bL2T-7" value="" style="ellipse;shape=doubleEllipse;whiteSpace=wrap;html=1;aspect=fixed;strokeColor=#36393d;fillColor=#cdeb8b;shadow=1;sketch=1;" vertex="1" parent="1">
          <mxGeometry x="40" y="96" width="408" height="408" as="geometry" />
        </mxCell>
        <mxCell id="Dg9hZTQ3nmTfVF4-bL2T-8" value="Graphs" style="text;strokeColor=none;fillColor=none;html=1;fontSize=24;fontStyle=1;verticalAlign=middle;align=center;fontColor=#009900;" vertex="1" parent="1">
          <mxGeometry x="60" y="252" width="100" height="40" as="geometry" />
        </mxCell>
        <mxCell id="Dg9hZTQ3nmTfVF4-bL2T-9" value="" style="html=1;shadow=0;dashed=0;align=center;verticalAlign=middle;shape=mxgraph.arrows2.jumpInArrow;dy=15;dx=38;arrowHead=55;glass=0;sketch=0;strokeColor=#23445d;fillColor=#bac8d3;" vertex="1" parent="1">
          <mxGeometry x="476.25" y="184.32999999999998" width="120" height="55.67" as="geometry" />
        </mxCell>
        <mxCell id="Dg9hZTQ3nmTfVF4-bL2T-10" value="" style="html=1;shadow=0;dashed=0;align=center;verticalAlign=middle;shape=mxgraph.arrows2.jumpInArrow;dy=15;dx=38;arrowHead=55;glass=0;sketch=0;strokeColor=#23445d;fillColor=#bac8d3;rotation=-180;" vertex="1" parent="1">
          <mxGeometry x="478.13" y="320" width="116.25" height="58" as="geometry" />
        </mxCell>
        <mxCell id="Dg9hZTQ3nmTfVF4-bL2T-11" value="" style="html=1;shadow=0;dashed=0;align=center;verticalAlign=middle;shape=mxgraph.arrows2.arrow;dy=0.6;dx=40;flipH=1;notch=0;fillColor=#bac8d3;strokeColor=#23445d;glass=0;sketch=0;" vertex="1" parent="1">
          <mxGeometry x="940" y="265" width="100" height="40" as="geometry" />
        </mxCell>
      </root>
    </mxGraphModel>
  </diagram>
</mxfile>
